<svg
        id="visual"
        viewBox="0 400 900 200"
        xmlns="http://www.w3.org/2000/svg"
        version="1.1"
      >
        <path
          d="M0 491L13.7 487.7C27.3 484.3 54.7 477.7 82 467C109.3 456.3 136.7 441.7 163.8 442.8C191 444 218 461 245.2 462.5C272.3 464 299.7 450 327 445.3C354.3 440.7 381.7 445.3 409 451C436.3 456.7 463.7 463.3 491 465.5C518.3 467.7 545.7 465.3 573 455.7C600.3 446 627.7 429 654.8 418C682 407 709 402 736.2 403.3C763.3 404.7 790.7 412.3 818 413.3C845.3 414.3 872.7 408.7 886.3 405.8L900 403L900 601L886.3 601C872.7 601 845.3 601 818 601C790.7 601 763.3 601 736.2 601C709 601 682 601 654.8 601C627.7 601 600.3 601 573 601C545.7 601 518.3 601 491 601C463.7 601 436.3 601 409 601C381.7 601 354.3 601 327 601C299.7 601 272.3 601 245.2 601C218 601 191 601 163.8 601C136.7 601 109.3 601 82 601C54.7 601 27.3 601 13.7 601L0 601Z"
          fill="#fa7268"
        ></path>
        <path
          d="M0 451L13.7 455.3C27.3 459.7 54.7 468.3 82 471.5C109.3 474.7 136.7 472.3 163.8 470.5C191 468.7 218 467.3 245.2 465.3C272.3 463.3 299.7 460.7 327 465.3C354.3 470 381.7 482 409 483C436.3 484 463.7 474 491 471.7C518.3 469.3 545.7 474.7 573 470.5C600.3 466.3 627.7 452.7 654.8 456.7C682 460.7 709 482.3 736.2 489.8C763.3 497.3 790.7 490.7 818 489.7C845.3 488.7 872.7 493.3 886.3 495.7L900 498L900 601L886.3 601C872.7 601 845.3 601 818 601C790.7 601 763.3 601 736.2 601C709 601 682 601 654.8 601C627.7 601 600.3 601 573 601C545.7 601 518.3 601 491 601C463.7 601 436.3 601 409 601C381.7 601 354.3 601 327 601C299.7 601 272.3 601 245.2 601C218 601 191 601 163.8 601C136.7 601 109.3 601 82 601C54.7 601 27.3 601 13.7 601L0 601Z"
          fill="#eb5967"
        ></path>
        <path
          d="M0 481L13.7 488.5C27.3 496 54.7 511 82 511.8C109.3 512.7 136.7 499.3 163.8 501.5C191 503.7 218 521.3 245.2 530.5C272.3 539.7 299.7 540.3 327 540.5C354.3 540.7 381.7 540.3 409 535.3C436.3 530.3 463.7 520.7 491 517.7C518.3 514.7 545.7 518.3 573 523.2C600.3 528 627.7 534 654.8 531.8C682 529.7 709 519.3 736.2 518.3C763.3 517.3 790.7 525.7 818 528.7C845.3 531.7 872.7 529.3 886.3 528.2L900 527L900 601L886.3 601C872.7 601 845.3 601 818 601C790.7 601 763.3 601 736.2 601C709 601 682 601 654.8 601C627.7 601 600.3 601 573 601C545.7 601 518.3 601 491 601C463.7 601 436.3 601 409 601C381.7 601 354.3 601 327 601C299.7 601 272.3 601 245.2 601C218 601 191 601 163.8 601C136.7 601 109.3 601 82 601C54.7 601 27.3 601 13.7 601L0 601Z"
          fill="#da3f67"
        ></path>
        <path
          d="M0 524L13.7 530.8C27.3 537.7 54.7 551.3 82 560.5C109.3 569.7 136.7 574.3 163.8 568.8C191 563.3 218 547.7 245.2 545.8C272.3 544 299.7 556 327 555C354.3 554 381.7 540 409 535.2C436.3 530.3 463.7 534.7 491 538.5C518.3 542.3 545.7 545.7 573 544.5C600.3 543.3 627.7 537.7 654.8 540.7C682 543.7 709 555.3 736.2 561.2C763.3 567 790.7 567 818 568C845.3 569 872.7 571 886.3 572L900 573L900 601L886.3 601C872.7 601 845.3 601 818 601C790.7 601 763.3 601 736.2 601C709 601 682 601 654.8 601C627.7 601 600.3 601 573 601C545.7 601 518.3 601 491 601C463.7 601 436.3 601 409 601C381.7 601 354.3 601 327 601C299.7 601 272.3 601 245.2 601C218 601 191 601 163.8 601C136.7 601 109.3 601 82 601C54.7 601 27.3 601 13.7 601L0 601Z"
          fill="#c62368"
        ></path>
      </svg>
