<svg width="599" height="697" xmlns="http://www.w3.org/2000/svg" xmlns:xlink="http://www.w3.org/1999/xlink" xml:space="preserve" overflow="hidden"><defs><linearGradient x1="1440.03" y1="561.863" x2="1907.32" y2="821.793" gradientUnits="userSpaceOnUse" spreadMethod="reflect" id="fill0"><stop offset="0" stop-color="#FA7F76"/><stop offset="0.3" stop-color="#E35D76"/><stop offset="1" stop-color="#FF8C19"/></linearGradient><linearGradient x1="1233.67" y1="410.016" x2="1744.92" y2="757.245" gradientUnits="userSpaceOnUse" spreadMethod="reflect" id="fill1"><stop offset="0" stop-color="#CB3876"/><stop offset="0.6" stop-color="#E35D76"/><stop offset="1" stop-color="#E35D76"/></linearGradient></defs><g transform="translate(-1270 -292)"><path d="M1775.62 547.349C1760.94 547.349 1747.6 551.898 1735.59 560.997 1723.58 570.096 1717.2 578.667 1716.47 586.708L1764.39 586.708C1791.13 586.708 1804.49 579.562 1804.49 565.271 1804.49 560.174 1801.96 555.912 1796.88 552.487 1791.81 549.061 1784.72 547.349 1775.62 547.349ZM1780.21 486.521C1806.11 486.521 1827.34 493.735 1843.87 508.164 1860.41 522.593 1868.68 541.266 1868.68 564.184 1868.68 594.584 1855.56 617.925 1829.33 634.206 1814.62 643.391 1791.52 647.983 1760.01 647.983L1742.78 647.983 1762.25 666.66 1773.45 680.204C1796.68 708.897 1808.3 739.224 1808.3 771.188 1808.3 802.426 1797.97 829.826 1777.31 853.387 1749.28 885.518 1712.53 901.583 1667.06 901.583 1631.73 901.583 1602.76 890.676 1580.14 868.861 1557.51 847.046 1546.2 819.086 1546.2 784.979 1546.2 743.449 1563.69 708.857 1598.69 681.203 1617.47 666.362 1634.98 658.941 1651.2 658.941 1660.32 658.941 1667.84 661.642 1673.75 667.045 1679.66 672.447 1682.61 679.359 1682.61 687.783 1682.61 699.069 1676.17 708.694 1663.28 716.656L1645.78 727.411C1636.38 733.289 1628.55 741.505 1622.26 752.06 1615.98 762.615 1612.84 773.023 1612.84 783.285 1612.84 799.5 1618.26 812.834 1629.08 823.287 1639.91 833.74 1653.73 838.966 1670.55 838.966 1689.32 838.966 1705.64 831.914 1719.51 817.81 1733.38 803.706 1740.31 787.084 1740.31 767.945 1740.31 755.904 1737.45 744.847 1731.73 734.774 1726 724.701 1713.32 708.742 1693.69 686.896 1679.57 671.262 1669.85 658.291 1664.51 647.983L1608.06 647.983C1584.86 647.983 1573.26 639.559 1573.26 622.709 1573.26 611.171 1577.3 602.287 1585.38 596.055 1593.47 589.824 1604.46 586.708 1618.37 586.708L1651.8 586.708C1654.57 559.229 1668.18 535.661 1692.63 516.005 1717.08 496.349 1746.27 486.521 1780.21 486.521Z" fill="url(#fill0)" fill-rule="evenodd"/><text fill="#000000" fill-opacity="0" font-family="Arial,Arial_MSFontService,sans-serif" font-size="415.062" x="1546.2" y="849.7">S</text><path d="M1641.53 442.73 1624.8 478.511 1637.87 478.511C1658.21 478.511 1668.39 470.501 1668.39 454.481 1668.39 446.647 1663.26 442.73 1653 442.73ZM1563.98 381.454 1647.52 381.454C1676.64 381.454 1698.4 387.154 1712.78 398.552 1727.17 409.95 1734.36 427.354 1734.36 450.763 1734.36 478.994 1723.4 502.137 1701.48 520.191 1685.65 533.255 1661.45 539.786 1628.88 539.786L1602.06 539.786 1566.76 626.986C1548.58 671.561 1534.46 702.421 1524.4 719.566 1514.34 736.711 1501.5 751.419 1485.9 763.688 1463.2 781.549 1436.81 790.479 1406.72 790.479 1374.89 790.479 1349.05 780.398 1329.19 760.238 1309.32 740.077 1299.39 713.954 1299.39 681.87 1299.39 639.461 1314.87 602.408 1345.84 570.711 1362.55 553.558 1383.37 539.793 1408.32 529.414 1433.27 519.035 1458.04 513.845 1482.63 513.845 1495.22 513.845 1505.55 516.826 1513.61 522.787 1521.68 528.748 1525.71 536.684 1525.71 546.593 1525.71 557.039 1520.17 565.691 1509.1 572.549 1506.2 575.677 1498.08 577.868 1484.72 579.121 1456.56 581.679 1431.46 588.329 1409.41 599.07 1399.75 607.135 1390.81 618.011 1382.6 631.699 1374.39 645.388 1370.28 659.834 1370.28 675.039 1370.28 690.192 1374.07 702.076 1381.64 710.691 1389.21 719.305 1399.37 723.613 1412.11 723.613 1428.6 723.613 1443.04 716.457 1455.42 702.146 1467.79 687.834 1481.73 661.648 1497.23 623.586L1573.1 442.73 1553.67 442.73C1530.56 442.73 1519 434.233 1519 417.239 1519 405.848 1523.03 397.036 1531.09 390.803 1539.15 384.571 1550.11 381.454 1563.98 381.454Z" fill="url(#fill1)" fill-rule="evenodd"/><text fill="#000000" fill-opacity="0" font-family="Arial,Arial_MSFontService,sans-serif" font-size="409.024" x="1299.39" y="739.351">P</text></g></svg>